Coordinates
version=1
nRows=11
nColumns=36
inDegrees=yes

Units are S.I. units (second, meters, Newtons, ...)
If the header above contains a line with 'inDegrees', this indicates whether rotational values are in degrees (yes) or radians (no).

endheader
time	pelvis_tilt	pelvis_list	pelvis_rotation	pelvis_tx	pelvis_ty	pelvis_tz	hip_flexion_r	hip_adduction_r	hip_rotation_r	knee_angle_r	knee_angle_r_beta	ankle_angle_r	subtalar_angle_r	mtp_angle_r	hip_flexion_l	hip_adduction_l	hip_rotation_l	knee_angle_l	knee_angle_l_beta	ankle_angle_l	subtalar_angle_l	mtp_angle_l	lumbar_extension	lumbar_bending	lumbar_rotation	arm_flex_r	arm_add_r	arm_rot_r	elbow_flex_r	pro_sup_r	arm_flex_l	arm_add_l	arm_rot_l	elbow_flex_l	pro_sup_l
      1.48333330	     -0.33656945	     -0.14300904	     -2.95019259	     -0.01474675	      1.32180968	      0.06543224	      1.33433709	      1.44860485	     -7.00465638	      1.29251961	      0.02255872	     12.51593849	      7.04246508	     -7.49999987	      0.77224323	      0.83789800	     -6.86023491	      5.45222494	      0.09515928	     13.41564145	     11.12232000	     -7.49999987	     -3.82281648	      0.18896243	     -1.38275462	     -2.11407347	     -6.42948422	      2.55464215	     32.94035055	     88.37431594	     -0.89136156	     -5.58376820	     -2.40612250	     27.67046482	     85.00676433
      1.50000000	     -0.42751734	     -0.15657878	     -3.07153433	     -0.01524251	      1.32369816	      0.06517037	      1.41239287	      1.48749712	     -6.89448234	      1.33323741	      0.02326938	     12.46133390	      6.93987990	     -7.49999987	      0.92256152	      0.84394218	     -7.10024590	      5.62321848	      0.09814368	     13.49620204	     10.84037086	     -7.49999987	     -3.62838183	      0.21038615	     -1.40245578	     -1.97603491	     -6.71710787	      3.47663644	     33.05688091	     85.30638238	     -1.05811926	     -5.86397740	     -1.88020333	     27.93566752	     82.21480920
      1.51666670	     -0.72271348	     -0.17770654	     -2.83695489	     -0.01376147	      1.32060451	      0.06432922	      1.76044853	      1.49154357	     -7.87073324	      1.44947724	      0.02529815	     12.99172994	      7.76804247	     -7.49999987	      1.36858801	      0.87633855	     -6.56524178	      5.87404002	      0.10252134	     13.49301811	      9.73245750	     -7.49999987	     -3.10890224	      0.25608344	     -1.74825205	     -1.83245488	     -6.66913275	      3.30489179	     32.66916622	     82.17303428	     -1.11296080	     -6.00191496	     -2.15846063	     27.62516187	     79.38984554
      1.53333330	     -0.69478017	     -0.17567018	     -3.13562749	     -0.01374333	      1.32227942	      0.06451159	      1.77776656	      1.52548142	     -6.86348596	      1.39230639	      0.02430033	     12.78127200	      6.70570847	     -7.49999987	      1.29455147	      0.88219305	     -7.11820006	      5.92812913	      0.10346537	     13.61066544	      9.86174067	     -7.49999987	     -3.25135293	      0.27897508	     -1.36895089	     -2.13664979	     -6.87530113	      1.91123574	     33.83780947	     88.48434599	     -1.24757344	     -6.12671149	     -3.46401419	     28.26757952	     84.74974684
      1.55000000	     -0.87621878	     -0.19267276	     -3.17848743	     -0.01544945	      1.32191418	      0.06475294	      2.09900670	      1.57034302	     -6.72413450	      1.37744578	      0.02404096	     13.00703561	      6.62528512	     -7.49999987	      1.52469186	      0.88057757	     -7.08653432	      6.03768928	      0.10537756	     13.75630612	      9.55686790	     -7.49999987	     -3.11444785	      0.30450001	     -1.33230442	     -2.03530577	     -7.07332698	      1.98831185	     34.10144841	     87.93320554	     -1.23840436	     -6.44375422	     -3.28773757	     28.38565912	     84.47351448
      1.56666670	     -0.92706021	     -0.15773480	     -3.14609020	     -0.01386586	      1.32480835	      0.06476327	      2.27086473	      1.57002698	     -6.66541350	      1.30694252	      0.02281045	     13.25542901	      6.66501999	     -7.49999987	      1.54485095	      0.94644356	     -6.70035631	      6.01703811	      0.10501713	     13.58930159	      8.81491787	     -7.49999987	     -3.16833479	      0.26713573	     -1.42745430	     -1.82089650	     -7.12747967	      2.23143319	     34.23879219	     82.84662569	     -1.19992235	     -6.66964967	     -3.31608413	     28.50234089	     79.74380590
      1.58333330	     -1.08424610	     -0.14104036	     -3.12318546	     -0.01430955	      1.32497289	      0.06456212	      2.57030594	      1.58275208	     -6.57553960	      1.23772559	      0.02160239	     13.48397902	      6.99097103	     -7.49999987	      1.71151086	      0.95287035	     -6.93512967	      6.01583743	      0.10499617	     13.90295129	      9.41550560	     -7.49999987	     -3.12479036	      0.24394336	     -1.47756250	     -1.64167252	     -7.54231358	      3.14532290	     34.46757764	     82.26231746	     -1.09049272	     -7.19407853	     -2.62719201	     28.48309247	     79.17597014
      1.60000000	     -1.00111243	     -0.17493096	     -2.91579990	     -0.01484703	      1.32212190	      0.06384890	      2.35292527	      1.66296252	     -6.60729684	      1.20762783	      0.02107708	     13.21283534	      7.11148910	     -7.49999987	      1.62406460	      0.93278943	     -6.71535181	      6.00697323	      0.10484146	     13.76853396	      9.19131494	     -7.49999987	     -3.43053093	      0.22428157	     -1.69810973	     -1.43341700	     -7.47706831	      2.82059992	     34.56252885	     83.24737933	     -0.83311956	     -7.38583096	     -2.85147095	     28.58949175	     80.05478298
      1.61666670	     -1.25756188	     -0.19640533	     -2.84288671	     -0.01453939	      1.32100565	      0.06403985	      2.56812007	      1.74933918	     -6.50718944	      1.36112369	      0.02375609	     13.09915481	      7.16060156	     -7.49999987	      1.88525511	      0.89450774	     -6.79796851	      6.03791507	      0.10538150	     13.76234082	      9.04074023	     -7.49999987	     -3.29720163	      0.23877677	     -1.76418549	     -1.41388490	     -7.72324999	      3.46757554	     34.91742637	     81.49656737	     -0.71332802	     -7.72569358	     -2.34136201	     28.78975670	     78.44321039
      1.63333330	     -1.27348498	     -0.24698702	     -2.75253445	     -0.01456019	      1.32272930	      0.06345932	      2.47509505	      1.84456497	     -6.06760853	      1.36179807	      0.02376786	     12.66825785	      6.54907787	     -7.49999987	      1.86566088	      0.84535349	     -6.72464675	      6.01622025	      0.10500285	     13.49928099	      8.79711114	     -7.49999987	     -3.43632505	      0.26348645	     -1.81492119	     -1.25559080	     -7.72054658	      3.07336236	     34.93740030	     78.60958665	     -0.59405204	     -7.82443701	     -2.71348835	     29.07836237	     75.85384277
      1.65000000	     -1.49456137	     -0.33353255	     -2.53081232	     -0.01158071	      1.31588689	      0.06508404	      2.59754775	      1.98331318	     -6.05706117	      1.44794350	      0.02527138	     12.50893685	      6.61304554	     -7.49999987	      2.09788429	      0.73119243	     -6.55509142	      6.04298516	      0.10546999	     13.72525163	      9.09467933	     -7.49999987	     -3.31639280	      0.34273364	     -1.82577976	     -1.52167147	     -7.65680643	      1.20601047	     35.41686126	     87.09627356	     -0.50612165	     -7.90391103	     -4.47119098	     29.32125601	     83.71134689
